# xmcd
#
# Track frame offsets: 
#        150
#        18348
#        35322
#        57632
#        78866
#        94567
#        115548
#        135261
#        156554
#        181988
#
# Disc length: 2778 seconds
#
# Revision: 0
# Processed by: cddbd v1.5.2PL0 Copyright (c) Steve Scherf et al.
# Submitted via: ExactAudioCopy v1.0b3
#
DISCID=710ad80a
DTITLE=The Strata-Tones - Dressed Up to Fess Up
DYEAR=2012
DGENRE=R&B
TTITLE0=Keep On Cookin'
TTITLE1=BeBop Baby
TTITLE2=Did You Ever
TTITLE3=Lovers Lost and Found
TTITLE4=Raggedy Annie
TTITLE5=This Old House
TTITLE6=Together For Some Time
TTITLE7=Treat Your Woman Right
TTITLE8=T.W.F.S.
TTITLE9=Ball and Chain (live)
EXTD=
EXTT0=
EXTT1=
EXTT2=
EXTT3=
EXTT4=
EXTT5=
EXTT6=
EXTT7=
EXTT8=
EXTT9=
PLAYORDER=
